<svg width="54" height="54" viewBox="0 0 54 54" fill="none" xmlns="http://www.w3.org/2000/svg">
<path d="M49.9076 20.039C49.9076 17.6976 47.9881 15.7781 45.6467 15.7781C43.3053 15.7781 41.3857 17.6976 41.3857 20.039C41.3857 20.8195 41.6178 21.5578 41.9975 22.1906L36.26 27.9281C35.6693 27.6328 35.0154 27.443 34.3193 27.443C33.4334 27.443 32.6318 27.7172 31.9357 28.1601L26.1771 22.4226C26.6412 21.7476 26.9154 20.925 26.9154 20.039C26.9154 17.6976 24.9959 15.7781 22.6545 15.7781C20.3131 15.7781 18.3936 17.6976 18.3936 20.039C18.3936 20.7351 18.5834 21.389 18.8787 21.9586L12.7826 28.0547C12.1498 27.675 11.4115 27.443 10.6311 27.443C8.28965 27.443 6.37012 29.3625 6.37012 31.7039C6.37012 34.0453 8.28965 35.9648 10.6311 35.9648C12.9725 35.9648 14.892 34.0453 14.892 31.7039C14.892 30.9234 14.66 30.1851 14.2803 29.5523L20.2709 23.5617C20.9459 24.0258 21.7686 24.3 22.6545 24.3C23.3506 24.3 24.0045 24.1101 24.574 23.8148L30.5225 29.7633C30.2271 30.3539 30.0373 31.0078 30.0373 31.7039C30.0373 34.0453 31.9568 35.9648 34.2982 35.9648C36.6397 35.9648 38.5592 34.0453 38.5592 31.7039C38.5592 30.818 38.285 29.9953 37.842 29.3203L43.474 23.6883C44.1068 24.068 44.8451 24.3 45.6256 24.3C47.9881 24.3 49.9076 22.3804 49.9076 20.039ZM10.6311 33.8344C9.4498 33.8344 8.47949 32.864 8.47949 31.6828C8.47949 30.5015 9.4498 29.5312 10.6311 29.5312C11.2217 29.5312 11.749 29.7633 12.1498 30.164C12.5295 30.5437 12.7826 31.0922 12.7826 31.6828C12.7826 32.8851 11.8123 33.8344 10.6311 33.8344ZM22.6545 22.1695C21.4732 22.1695 20.5029 21.1992 20.5029 20.018C20.5029 18.8367 21.4732 17.8664 22.6545 17.8664C23.8357 17.8664 24.8061 18.8367 24.8061 20.018C24.8061 21.2203 23.8357 22.1695 22.6545 22.1695ZM34.3193 33.8344C33.1381 33.8344 32.1678 32.864 32.1678 31.6828C32.1678 30.5015 33.1381 29.5312 34.3193 29.5312C35.5006 29.5312 36.4709 30.5015 36.4709 31.6828C36.4498 32.8851 35.5006 33.8344 34.3193 33.8344ZM44.1279 21.5367C43.7482 21.157 43.4951 20.6086 43.4951 20.018C43.4951 18.8367 44.4654 17.8664 45.6467 17.8664C46.8279 17.8664 47.7982 18.8367 47.7982 20.018C47.7982 21.1992 46.8279 22.1695 45.6467 22.1695C45.0561 22.1695 44.5076 21.9375 44.1279 21.5367Z" fill="black"/>
<path d="M2.00381 44.8664C2.63662 44.8664 3.14287 44.3601 3.14287 43.7273V4.66171C3.14287 4.02889 2.63662 3.52264 2.00381 3.52264C1.371 3.52264 0.864746 4.02889 0.864746 4.66171V43.7273C0.864746 44.3601 1.371 44.8664 2.00381 44.8664Z" fill="black"/>
<path d="M7.95225 48.1992H2.00381C1.371 48.1992 0.864746 48.7055 0.864746 49.3383C0.864746 49.9711 1.371 50.4773 2.00381 50.4773H7.97334C8.60615 50.4773 9.1124 49.9711 9.1124 49.3383C9.1124 48.7055 8.58506 48.1992 7.95225 48.1992Z" fill="black"/>
<path d="M18.963 48.1992H13.0146C12.3817 48.1992 11.8755 48.7055 11.8755 49.3383C11.8755 49.9711 12.3817 50.4773 13.0146 50.4773H18.9841C19.6169 50.4773 20.1231 49.9711 20.1231 49.3383C20.1231 48.7055 19.5958 48.1992 18.963 48.1992Z" fill="black"/>
<path d="M29.9743 48.1992H24.0048C23.372 48.1992 22.8657 48.7055 22.8657 49.3383C22.8657 49.9711 23.372 50.4773 24.0048 50.4773H29.9743C30.6071 50.4773 31.1134 49.9711 31.1134 49.3383C31.1134 48.7055 30.6071 48.1992 29.9743 48.1992Z" fill="black"/>
<path d="M40.9851 48.1992H35.0155C34.3827 48.1992 33.8765 48.7055 33.8765 49.3383C33.8765 49.9711 34.3827 50.4773 35.0155 50.4773H40.9851C41.6179 50.4773 42.1241 49.9711 42.1241 49.3383C42.1241 48.7055 41.6179 48.1992 40.9851 48.1992Z" fill="black"/>
<path d="M51.9958 48.1992H46.0263C45.3935 48.1992 44.8872 48.7055 44.8872 49.3383C44.8872 49.9711 45.3935 50.4773 46.0263 50.4773H51.9958C52.6286 50.4773 53.1349 49.9711 53.1349 49.3383C53.1349 48.7055 52.6286 48.1992 51.9958 48.1992Z" fill="black"/>
</svg>
