<svg width="74" height="74" viewBox="0 0 74 74" fill="none" xmlns="http://www.w3.org/2000/svg">
<path d="M17.7339 67.8475C13.9025 67.8469 10.7965 64.7414 10.7955 60.9103L10.7915 17.7298C10.7905 13.8982 13.8967 10.7912 17.7288 10.7912L20.0334 10.7886L20.0352 8.47917C20.0352 7.30843 20.9052 6.34091 22.0341 6.18779L22.3479 6.16667C23.5188 6.16667 24.4865 7.03663 24.6396 8.16538L24.6607 8.47917L24.659 10.7886H33.9162L33.9177 8.47917C33.9177 7.30843 34.7879 6.34091 35.917 6.18779L36.2305 6.16667C37.4016 6.16667 38.3691 7.03663 38.5224 8.16538L38.5434 8.47917L38.5418 10.7886H47.7869L47.7887 8.47917C47.7887 7.30843 48.6588 6.34091 49.7877 6.18779L50.1015 6.16667C51.2723 6.16667 52.2398 7.03663 52.3931 8.16538L52.4143 8.47917L52.4125 10.7886L54.7225 10.7912C58.5539 10.7926 61.6597 13.8976 61.661 17.7289L61.6628 31.0701C60.2889 30.2028 58.7201 29.6169 57.0366 29.3931L57.0356 17.73C57.035 16.4525 55.9993 15.417 54.7222 15.4165H17.6977C16.4349 15.4335 15.4171 16.4622 15.4171 17.729L15.4211 60.9094C15.4214 62.1868 16.4572 63.2225 17.7343 63.2225L37.8293 63.221C38.4444 64.8897 39.387 66.4548 40.6141 67.8475H17.7339ZM57.0366 32.5144C58.8443 32.8455 60.4517 33.7499 61.6631 35.0322C63.0984 36.5511 63.9781 38.5999 63.9781 40.8542C63.9781 43.1078 63.099 45.156 61.6647 46.6746C60.4532 47.9572 58.8459 48.8622 57.0381 49.194C56.5386 49.2855 56.0237 49.3333 55.498 49.3333C51.0743 49.3333 47.4419 45.9466 47.0521 41.625C47.0293 41.3712 47.0176 41.1141 47.0176 40.8542C47.0176 39.4664 47.3512 38.1563 47.9423 37C49.3461 34.2546 52.2025 32.375 55.498 32.375C56.0234 32.375 56.5377 32.4228 57.0366 32.5144ZM44.6604 52.417C44.6752 52.4167 44.69 52.4167 44.7048 52.4167H66.2909C68.8454 52.4167 70.9165 54.4874 70.9165 57.0417V58.5833C70.9165 64.6618 65.1824 70.9167 55.498 70.9167C51.2488 70.9167 47.7601 69.7126 45.1824 67.8475C43.4039 66.5605 42.059 64.9587 41.1978 63.2207C40.4624 61.7373 40.0792 60.1543 40.0792 58.5833V57.0417C40.0792 54.6219 41.9378 52.6362 44.3055 52.4336C44.4227 52.4238 44.5411 52.4179 44.6604 52.417ZM22.3485 37H44.5919C44.1658 38.2056 43.9339 39.5027 43.9339 40.8542C43.9339 41.1132 43.9426 41.3703 43.9592 41.625H22.3485C21.0712 41.625 20.0357 40.5896 20.0357 39.3125C20.0357 38.1418 20.9058 37.1742 22.0347 37.021L22.3485 37ZM22.3485 49.3333H34.6781C35.9552 49.3333 36.9906 50.3687 36.9906 51.6458C36.9906 52.8166 36.1208 53.7841 34.9917 53.9374L34.6781 53.9583H22.3485C21.0712 53.9583 20.0357 52.923 20.0357 51.6458C20.0357 50.4751 20.9058 49.5075 22.0347 49.3543L22.3485 49.3333ZM22.3485 24.6667H50.0966C51.3737 24.6667 52.4094 25.702 52.4094 26.9792C52.4094 28.1499 51.5393 29.1174 50.4105 29.2705L50.0966 29.2917H22.3485C21.0712 29.2917 20.0357 28.2563 20.0357 26.9792C20.0357 25.8084 20.9058 24.8409 22.0347 24.6878L22.3485 24.6667Z" fill="#212121"/>
</svg>
