<svg width="56" height="56" viewBox="0 0 56 56" fill="none" xmlns="http://www.w3.org/2000/svg">
<g clip-path="url(#clip0_108_15)">
<path fill-rule="evenodd" clip-rule="evenodd" d="M49.1582 0C52.9343 0 56 3.06578 56 6.84184V49.1582C56 52.9342 52.9342 56 49.1582 56H37.5132V34.8999H44.7976L46.1836 25.8633H37.5132V19.9989C37.5132 17.5267 38.7243 15.1168 42.6079 15.1168H46.55V7.42339C46.55 7.42339 42.9723 6.81286 39.552 6.81286C32.4111 6.81286 27.7438 11.1407 27.7438 18.9758V25.8633H19.8062V34.8999H27.7438V56H6.84184C3.06578 56 0 52.9342 0 49.1582V6.84184C0 3.06578 3.06567 0 6.84184 0L49.1582 0Z" fill="black"/>
</g>
<defs>
<clipPath id="clip0_108_15">
<rect width="56" height="56" fill="white"/>
</clipPath>
</defs>
</svg>
