<svg width="56" height="56" viewBox="0 0 56 56" fill="none" xmlns="http://www.w3.org/2000/svg">
<path d="M15.5556 0C6.96578 0 0 6.96578 0 15.5556V40.4444C0 49.0342 6.96578 56 15.5556 56H40.4444C49.0342 56 56 49.0342 56 40.4444V15.5556C56 6.96578 49.0342 0 40.4444 0H15.5556ZM46.6667 6.22222C48.384 6.22222 49.7778 7.616 49.7778 9.33333C49.7778 11.0507 48.384 12.4444 46.6667 12.4444C44.9493 12.4444 43.5556 11.0507 43.5556 9.33333C43.5556 7.616 44.9493 6.22222 46.6667 6.22222ZM28 12.4444C36.5898 12.4444 43.5556 19.4102 43.5556 28C43.5556 36.5898 36.5898 43.5556 28 43.5556C19.4102 43.5556 12.4444 36.5898 12.4444 28C12.4444 19.4102 19.4102 12.4444 28 12.4444ZM28 18.6667C25.5246 18.6667 23.1507 19.65 21.4003 21.4003C19.65 23.1507 18.6667 25.5246 18.6667 28C18.6667 30.4754 19.65 32.8493 21.4003 34.5997C23.1507 36.35 25.5246 37.3333 28 37.3333C30.4754 37.3333 32.8493 36.35 34.5997 34.5997C36.35 32.8493 37.3333 30.4754 37.3333 28C37.3333 25.5246 36.35 23.1507 34.5997 21.4003C32.8493 19.65 30.4754 18.6667 28 18.6667Z" fill="black"/>
</svg>
