<svg width="48" height="48" viewBox="0 0 48 48" fill="none" xmlns="http://www.w3.org/2000/svg">
<g clip-path="url(#clip0_120_2)">
<path d="M8.44311 40.558C8.18711 40.558 7.93011 40.46 7.73511 40.264C6.56811 39.094 6.56811 37.191 7.73511 36.021C8.90811 34.853 10.8121 34.854 11.9791 36.022C12.3691 36.412 13.0041 36.411 13.3941 36.021C13.7831 35.632 13.7831 34.997 13.3931 34.607C12.8261 34.041 12.5141 33.287 12.5141 32.485C12.5141 31.683 12.8261 30.93 13.3941 30.364C14.5241 29.233 16.5021 29.232 17.6351 30.365C18.0121 30.742 18.6711 30.744 19.0491 30.365C19.4391 29.975 19.4391 29.341 19.0491 28.951C17.8811 27.781 17.8811 25.878 19.0491 24.708C20.1811 23.575 22.1581 23.574 23.2921 24.707C23.4831 24.896 23.7341 25 24.0001 25C24.2671 25 24.5181 24.896 24.7071 24.707C24.8961 24.518 25.0001 24.268 25.0001 24C25.0001 23.733 24.8961 23.482 24.7071 23.293C24.1401 22.727 23.8271 21.973 23.8271 21.17C23.8271 20.369 24.1401 19.616 24.7071 19.051C25.2731 18.485 26.0271 18.172 26.8281 18.172C26.8291 18.172 26.8291 18.172 26.8301 18.172C27.6311 18.173 28.3841 18.485 28.9501 19.053C29.3401 19.441 29.9751 19.441 30.3651 19.051C30.7551 18.661 30.7551 18.027 30.3651 17.636C29.7991 17.071 29.4871 16.317 29.4871 15.515C29.4871 14.714 29.7991 13.96 30.3661 13.394C31.4981 12.261 33.4741 12.26 34.6081 13.393C34.9991 13.785 35.6331 13.782 36.0231 13.394C36.2121 13.205 36.3161 12.954 36.3161 12.687C36.3161 12.42 36.2121 12.17 36.0231 11.982C34.8541 10.81 34.8541 8.907 36.0221 7.737C37.1951 6.569 39.0981 6.569 40.2661 7.738C40.6561 8.13 40.6561 8.762 40.2651 9.153C39.8741 9.543 39.2411 9.542 38.8511 9.152C38.4611 8.761 37.8271 8.761 37.4351 9.152C37.0471 9.541 37.0471 10.176 37.4371 10.568C38.0021 11.132 38.3151 11.884 38.3161 12.686C38.3161 13.487 38.0041 14.241 37.4371 14.808C36.3041 15.941 34.3281 15.941 33.1951 14.808C32.8181 14.432 32.1591 14.428 31.7811 14.808C31.5921 14.997 31.4881 15.248 31.4881 15.515C31.4881 15.783 31.5921 16.033 31.7801 16.221C32.9501 17.393 32.9501 19.296 31.7801 20.465C30.6111 21.635 28.7071 21.635 27.5371 20.467C27.3471 20.277 27.0971 20.172 26.8301 20.172C26.5631 20.172 26.3111 20.276 26.1211 20.466C25.9321 20.654 25.8281 20.904 25.8281 21.171C25.8281 21.439 25.9321 21.69 26.1211 21.878C26.6881 22.445 27.0001 23.199 27.0001 24C27.0001 24.802 26.6881 25.556 26.1211 26.122C25.5551 26.688 24.8021 27 24.0011 27C23.2001 27 22.4461 26.688 21.8791 26.121C21.5021 25.744 20.8421 25.742 20.4651 26.121C20.0751 26.511 20.0751 27.146 20.4651 27.536C21.0311 28.102 21.3431 28.856 21.3431 29.657C21.3431 30.458 21.0311 31.212 20.4641 31.778C19.3321 32.911 17.3551 32.911 16.2221 31.778C15.8451 31.401 15.1861 31.399 14.8081 31.778C14.6181 31.967 14.5141 32.217 14.5141 32.484C14.5141 32.752 14.6181 33.003 14.8071 33.191C15.9761 34.362 15.9761 36.265 14.8081 37.435C13.6371 38.602 11.7341 38.603 10.5651 37.436C10.1741 37.043 9.54011 37.044 9.14811 37.435C8.76011 37.824 8.76011 38.459 9.15011 38.851C9.54011 39.242 9.53911 39.875 9.14811 40.265C8.95511 40.46 8.69911 40.558 8.44311 40.558Z" fill="black"/>
<path d="M9.85808 45.143C7.98808 45.143 6.23008 44.415 4.90808 43.093C2.17908 40.364 2.17908 35.923 4.90808 33.194L33.1921 4.909C34.5141 3.587 36.2721 2.859 38.1421 2.859C40.0121 2.859 41.7701 3.587 43.0921 4.909C45.8211 7.638 45.8211 12.079 43.0921 14.808L14.8081 43.093C13.4861 44.415 11.7281 45.143 9.85808 45.143ZM38.1421 4.859C36.8061 4.859 35.5511 5.379 34.6061 6.323L6.32208 34.607C4.37308 36.556 4.37308 39.729 6.32208 41.678C7.26608 42.622 8.52208 43.142 9.85808 43.142C11.1941 43.142 12.4491 42.622 13.3941 41.678L41.6781 13.394C43.6271 11.445 43.6271 8.272 41.6781 6.323C40.7331 5.379 39.4781 4.859 38.1421 4.859Z" fill="black"/>
<path d="M17.7361 47.852C17.7181 47.852 17.7001 47.852 17.6821 47.852C15.1541 47.835 12.7411 46.722 10.7051 44.633L12.1381 43.237C13.7921 44.935 15.7131 45.839 17.6951 45.852C19.5011 45.877 21.2711 45.116 22.5861 43.8L43.7991 22.587C46.0391 20.347 47.2321 16.252 43.2201 12.087L44.6601 10.7C49.3551 15.574 48.3211 20.892 45.2121 24.001L24.0001 45.214C22.3221 46.892 20.0421 47.852 17.7361 47.852Z" fill="black"/>
<path d="M4.06116 37.601C3.80116 37.601 3.54216 37.5 3.34616 37.3C-1.36184 32.487 -0.242841 27.031 2.78716 24.001L24.0012 2.787C27.7092 -0.92 32.6862 -0.732 37.3132 3.292C37.7302 3.654 37.7742 4.286 37.4122 4.703C37.0502 5.12 36.4182 5.162 36.0012 4.802C32.1992 1.495 28.3402 1.277 25.4152 4.201L4.20116 25.415C1.76516 27.852 0.998159 32.038 4.77516 35.901C5.16116 36.296 5.15416 36.929 4.75916 37.315C4.56516 37.506 4.31316 37.601 4.06116 37.601Z" fill="black"/>
</g>
<defs>
<clipPath id="clip0_120_2">
<rect width="48" height="48" fill="white"/>
</clipPath>
</defs>
</svg>
