<svg width="63" height="63" viewBox="0 0 63 63" fill="none" xmlns="http://www.w3.org/2000/svg">
<path d="M10.7792 51.1764C10.1595 51.1764 9.55377 51.3601 9.03851 51.7044C8.52325 52.0487 8.12165 52.5381 7.8845 53.1106C7.64735 53.6831 7.5853 54.3131 7.7062 54.9209C7.8271 55.5287 8.12551 56.087 8.5637 56.5252C9.0019 56.9634 9.56019 57.2618 10.168 57.3827C10.7758 57.5036 11.4058 57.4415 11.9783 57.2044C12.5508 56.9672 13.0402 56.5656 13.3844 56.0504C13.7287 55.5351 13.9125 54.9293 13.9125 54.3096C13.9116 53.4789 13.5811 52.6825 12.9937 52.0951C12.4064 51.5077 11.6099 51.1773 10.7792 51.1764ZM10.7792 55.354C10.5727 55.354 10.3708 55.2928 10.199 55.178C10.0272 55.0633 9.89338 54.9001 9.81433 54.7093C9.73528 54.5185 9.7146 54.3085 9.7549 54.1059C9.7952 53.9033 9.89467 53.7172 10.0407 53.5711C10.1868 53.425 10.3729 53.3256 10.5755 53.2853C10.7781 53.245 10.9881 53.2657 11.1789 53.3447C11.3698 53.4238 11.5329 53.5576 11.6476 53.7294C11.7624 53.9011 11.8237 54.1031 11.8237 54.3096C11.8233 54.5865 11.7132 54.852 11.5174 55.0478C11.3216 55.2436 11.0561 55.3537 10.7792 55.354Z" fill="black"/>
<path d="M59.8667 17.7551H47.3337C46.7722 17.7545 46.221 17.9059 45.7385 18.1931C45.4871 17.6916 45.1567 17.2339 44.7598 16.8374L44.5065 16.584C44.4092 16.4872 44.332 16.3721 44.2795 16.2454C44.227 16.1186 44.2001 15.9827 44.2005 15.8454V14.5851C45.0705 14.4592 45.866 14.0241 46.4413 13.3595C47.0167 12.695 47.3335 11.8454 47.3337 10.9664V4.61025C47.3337 4.00482 47.2145 3.40532 46.9828 2.84598C46.7511 2.28663 46.4115 1.7784 45.9834 1.3503C45.5553 0.922199 45.0471 0.582612 44.4878 0.350926C43.9284 0.119241 43.3289 -3.77167e-06 42.7235 1.24969e-10H33.1445C32.5391 -4.45745e-06 31.9396 0.11924 31.3802 0.350925C30.8209 0.58261 30.3127 0.922198 29.8846 1.3503C29.4565 1.7784 29.1169 2.28663 28.8852 2.84598C28.6535 3.40532 28.5343 4.00482 28.5343 4.61025V6.2665H27.4898V8.35533H31.6675V10.749C31.6641 11.7935 31.9755 12.8147 32.561 13.6796C33.1466 14.5445 33.9792 15.2128 34.9502 15.5976L36.2331 16.1107C36.4273 16.1877 36.5938 16.3214 36.7109 16.4944C36.828 16.6673 36.8903 16.8716 36.8896 17.0804V18.3669L36.457 18.7995H24.4146C24.3142 18.5188 24.1747 18.2536 24.0003 18.0118C23.7119 17.6071 23.3304 17.2776 22.8881 17.0512C22.4457 16.8247 21.9554 16.7079 21.4584 16.7107H15.3458C14.1674 16.7107 13.0134 17.0465 12.0191 17.6788C11.0247 18.3112 10.2311 19.2138 9.73127 20.2809C9.23145 21.3481 9.04611 22.5356 9.19695 23.7043C9.3478 24.873 9.82858 25.9745 10.583 26.8798L12.3248 28.9699C12.4438 29.1128 12.5225 29.2849 12.5528 29.4683C12.5831 29.6518 12.564 29.84 12.4973 30.0136L7.96808 41.7896C7.49006 41.8293 7.02647 41.9729 6.60968 42.2103L1.66235 45.0374C1.05047 45.3855 0.566461 45.9208 0.281493 46.5646C-0.00347544 47.2083 -0.0743611 47.9265 0.0792605 48.6135C0.232882 49.3006 0.602903 49.9202 1.13491 50.3812C1.66691 50.8423 2.33282 51.1205 3.03471 51.1749C2.58549 52.2846 2.38002 53.4779 2.43221 54.674C2.4844 55.8701 2.79303 57.041 3.3372 58.1074C3.88137 59.1739 4.64837 60.1109 5.58625 60.855C6.52413 61.5992 7.61097 62.133 8.77318 62.4205C9.93538 62.708 11.1458 62.7423 12.3224 62.5212C13.4991 62.3001 14.6144 61.8287 15.593 61.139C16.5716 60.4492 17.3905 59.5572 17.9943 58.5234C18.598 57.4896 18.9726 56.338 19.0925 55.1468C19.449 55.2835 19.8276 55.3538 20.2094 55.354H41.1348C41.4002 57.4627 42.4593 59.3909 44.0965 60.7461C45.7336 62.1014 47.8258 62.7817 49.9469 62.6486C52.068 62.5155 54.0587 61.5789 55.5136 60.0297C56.9684 58.4804 57.7782 56.4349 57.7779 54.3096V49.1201C57.7765 48.7023 57.9011 48.2937 58.1353 47.9478C58.3696 47.6018 58.7026 47.3345 59.0911 47.1806L60.3738 46.6674C61.1506 46.3597 61.8167 45.825 62.2851 45.133C62.7536 44.4411 63.0027 43.6241 63 42.7885V40.7322C63.0006 39.6819 62.604 38.6701 61.8898 37.9C62.2376 37.6064 62.5172 37.2405 62.7089 36.8277C62.9007 36.4149 63 35.9653 63 35.5101V20.8883C62.999 20.0576 62.6686 19.2612 62.0812 18.6738C61.4938 18.0864 60.6974 17.756 59.8667 17.7551ZM31.6675 6.2665H30.6231V4.61025C30.6231 3.94153 30.8888 3.30021 31.3616 2.82736C31.8345 2.35451 32.4758 2.08886 33.1445 2.08883H42.7235C43.3922 2.08885 44.0335 2.35451 44.5064 2.82736C44.9792 3.30021 45.2449 3.94153 45.2449 4.61025V10.9664C45.2449 11.177 45.2025 11.3854 45.1201 11.5793C45.0377 11.7731 44.917 11.9483 44.7654 12.0945C44.6137 12.2406 44.4341 12.3547 44.2374 12.4299C44.0406 12.505 43.8308 12.5397 43.6203 12.5319C42.7884 12.5024 42.1117 11.772 42.1117 10.9038C42.1103 9.67432 41.6213 8.49562 40.7519 7.62626C39.8825 6.75691 38.7038 6.26789 37.4744 6.2665H31.6675ZM41.4206 13.8359L38.8955 16.3609C38.7813 15.8707 38.55 15.4154 38.2214 15.0341C37.8928 14.6528 37.4768 14.3568 37.0088 14.1713L36.9844 14.1616L40.0831 11.5793C40.2393 12.4693 40.7148 13.2717 41.4206 13.8359ZM34.9049 13.1755C34.5448 12.8822 34.2547 12.5121 34.056 12.0922C33.8573 11.6724 33.7549 11.2135 33.7563 10.749V8.35533H37.4744C37.8647 8.35564 38.2497 8.44578 38.5996 8.61877C38.9494 8.79177 39.2548 9.04297 39.492 9.35293L34.9049 13.1755ZM24.4132 20.8883H34.3682L33.1972 22.0594C32.9068 22.3513 32.5615 22.5826 32.1812 22.7402C31.8009 22.8977 31.3931 22.9783 30.9815 22.9772H23.7169L24.4132 20.8883ZM23.3122 25.066H30.9815C31.6675 25.0678 32.3472 24.9336 32.981 24.6711C33.6148 24.4085 34.1903 24.0229 34.6742 23.5365L42.1219 16.0887C42.1775 16.8338 42.4997 17.5339 43.0294 18.0609L43.2828 18.3144C43.5747 18.6047 43.8061 18.95 43.9636 19.3303C44.1211 19.7105 44.2016 20.1183 44.2005 20.5299V28.1992H37.934V26.5431L40.7614 23.7156L39.2843 22.2387L35.286 26.2371C34.9957 26.5289 34.6504 26.7603 34.2701 26.9178C33.8897 27.0754 33.482 27.1559 33.0703 27.1548H23.3122V25.066ZM24.71 49.0875H23.3426C23.1764 49.0874 23.0127 49.0476 22.8649 48.9715C22.7171 48.8955 22.5895 48.7853 22.4928 48.6502L18.5677 43.1548C18.2502 42.7115 17.8275 42.3541 17.3377 42.1147L21.628 29.2436H33.0703C34.0521 29.2457 35.0144 28.969 35.8452 28.4458V31.3325C35.8449 31.6094 35.7347 31.8748 35.5389 32.0706C35.3431 32.2664 35.0777 32.3766 34.8008 32.3769H33.7563C32.3718 32.3785 31.0445 32.9292 30.0655 33.9081C29.0865 34.8871 28.5358 36.2145 28.5343 37.599V43.8655H28.012C27.3953 43.8653 26.7886 44.0212 26.2483 44.3186C25.708 44.6161 25.2519 45.0455 24.9223 45.5667C24.5926 46.088 24.4003 46.6842 24.3632 47.2998C24.3261 47.9155 24.4454 48.5305 24.71 49.0875ZM20.1789 27.1548C19.9019 27.1548 19.6363 27.0448 19.4404 26.8489C19.2445 26.653 19.1345 26.3874 19.1345 26.1104C19.1345 25.8334 19.2445 25.5678 19.4404 25.3719C19.6363 25.176 19.9019 25.066 20.1789 25.066H21.2233V27.1548H20.1789ZM28.012 45.9543H33.7563V47.5209C33.7559 47.9363 33.5907 48.3345 33.297 48.6282C33.0033 48.9219 32.6051 49.0871 32.1897 49.0875H28.012C27.5966 49.0875 27.1981 48.9225 26.9043 48.6287C26.6105 48.3349 26.4454 47.9364 26.4454 47.5209C26.4454 47.1054 26.6105 46.707 26.9043 46.4132C27.1981 46.1194 27.5966 45.9543 28.012 45.9543ZM30.6231 43.8655V37.599C30.624 36.7683 30.9545 35.9719 31.5418 35.3845C32.1292 34.7971 32.9256 34.4667 33.7563 34.4657H34.8008C35.6314 34.4648 36.4279 34.1344 37.0152 33.547C37.6026 32.9596 37.933 32.1632 37.934 31.3325V30.2881H44.2005V35.5101C44.2002 35.787 44.09 36.0525 43.8942 36.2483C43.6984 36.4441 43.433 36.5542 43.1561 36.5546H37.934C36.8264 36.5558 35.7645 36.9964 34.9813 37.7796C34.1981 38.5627 33.7576 39.6246 33.7563 40.7322V43.8655H30.6231ZM17.7985 18.7995H21.4584C21.6239 18.7995 21.787 18.8388 21.9344 18.9142C22.0817 18.9896 22.2089 19.099 22.3057 19.2332C22.4025 19.3675 22.466 19.5228 22.4909 19.6864C22.5159 19.85 22.5016 20.0172 22.4493 20.1742L21.515 22.9772H20.1789C19.4111 22.9771 18.67 23.259 18.0963 23.7693C17.5226 24.2796 17.1563 24.9828 17.067 25.7454C16.9776 26.508 17.1714 27.2769 17.6115 27.906C18.0517 28.5351 18.7075 28.9807 19.4545 29.1582L16.8503 36.971L13.3902 33.5108L14.4469 30.7635C14.6469 30.2428 14.7044 29.6782 14.6134 29.1278C14.5225 28.5775 14.2864 28.0614 13.9295 27.6327L12.7943 26.2705L13.8762 25.7296C14.4907 25.4244 15.0385 25.0004 15.488 24.4822C15.9375 23.9639 16.2797 23.3616 16.4949 22.7102L17.7985 18.7995ZM11.5776 24.5435C11.3059 23.9184 11.194 23.2356 11.252 22.5565C11.3101 21.8774 11.5362 21.2234 11.9101 20.6536C12.2839 20.0837 12.7937 19.6158 13.3935 19.2921C13.9933 18.9685 14.6643 18.7992 15.3458 18.7995H15.5966L14.5132 22.0496C14.3841 22.4405 14.1788 22.8019 13.9091 23.1129C13.6394 23.4239 13.3107 23.6782 12.942 23.8613L11.5776 24.5435ZM12.5696 35.6444L16.1118 39.1866L15.2484 41.7766H10.211L12.5696 35.6444ZM10.7792 60.5761C9.51248 60.5766 8.27541 60.193 7.23117 59.476C6.18693 58.7589 5.38459 57.7422 4.93 56.5599C4.4754 55.3776 4.38992 54.0852 4.68482 52.8533C4.97972 51.6214 5.64115 50.5079 6.58186 49.6596L8.70361 48.2451C8.90107 48.1132 9.13322 48.0429 9.37065 48.0431H12.7562C12.9476 48.0434 13.1361 48.0891 13.3063 48.1767C13.4764 48.2643 13.6233 48.3911 13.7347 48.5467L16.903 52.9824C17.1016 53.8968 17.0928 54.8441 16.8773 55.7546C16.6618 56.6652 16.245 57.5159 15.6576 58.2442C15.0703 58.9726 14.3272 59.5601 13.483 59.9636C12.6388 60.3672 11.7149 60.5765 10.7792 60.5761ZM49.4226 60.5761C48.1832 60.5761 46.9716 60.2086 45.9411 59.52C44.9106 58.8315 44.1074 57.8528 43.6331 56.7077C43.1588 55.5627 43.0347 54.3027 43.2765 53.0871C43.5183 51.8715 44.1151 50.7549 44.9915 49.8785C45.8679 49.0022 46.9845 48.4053 48.2 48.1635C49.4156 47.9217 50.6756 48.0458 51.8207 48.5201C52.9657 48.9944 53.9444 49.7976 54.633 50.8282C55.3215 51.8587 55.6891 53.0702 55.6891 54.3096C55.6872 55.971 55.0264 57.5639 53.8516 58.7386C52.6768 59.9134 51.084 60.5743 49.4226 60.5761ZM59.598 44.728L58.3153 45.2412C57.5883 45.5291 56.9573 46.0163 56.4948 46.6468C56.0323 47.2774 55.7571 48.0256 55.7009 48.8055C54.6408 47.5938 53.253 46.7146 51.7047 46.2736C50.1563 45.8326 48.5135 45.8487 46.9741 46.32C45.4348 46.7914 44.0645 47.6977 43.0285 48.93C41.9924 50.1622 41.3348 51.6678 41.1348 53.2652H20.2094C20.0432 53.265 19.8794 53.2253 19.7316 53.1492C19.5838 53.0731 19.4563 52.963 19.3595 52.8279L18.8383 52.098L18.8366 52.0915L18.8341 52.0921L15.4344 47.3324C15.1295 46.9066 14.7276 46.5594 14.2618 46.3198C13.7961 46.0801 13.28 45.9548 12.7562 45.9543H9.37065C8.72077 45.9537 8.08534 46.1461 7.54496 46.5071L5.3588 47.9646L5.3521 47.9568C5.33435 47.9719 5.31787 47.9883 5.30024 48.0036L3.96231 48.8955C3.82043 48.9901 3.66007 49.0535 3.49186 49.0813C3.32364 49.1092 3.15143 49.101 2.98663 49.0572C2.82184 49.0134 2.66824 48.9351 2.53602 48.8275C2.4038 48.7198 2.29599 48.5853 2.21974 48.4327C2.08242 48.1578 2.05553 47.8407 2.14457 47.5466C2.23362 47.2525 2.43185 47.0036 2.69861 46.851L7.64594 44.0239C7.82768 43.9202 8.03332 43.8656 8.2426 43.8655H15.8895C16.0808 43.8657 16.2694 43.9115 16.4395 43.999C16.6097 44.0866 16.7565 44.2134 16.868 44.369L20.7931 49.8644C21.0833 50.2698 21.466 50.6003 21.9093 50.8284C22.3527 51.0566 22.844 51.1758 23.3426 51.1764H32.1897C33.1589 51.1753 34.088 50.7898 34.7733 50.1045C35.4586 49.4192 35.8441 48.4901 35.8452 47.5209V42.8211H60.9109C60.9058 43.2333 60.7783 43.6347 60.5445 43.9742C60.3107 44.3138 59.9813 44.5762 59.598 44.728ZM35.8452 40.7322C35.8458 40.1784 36.0661 39.6475 36.4577 39.2559C36.8493 38.8643 37.3802 38.644 37.934 38.6434H58.8223C59.3761 38.644 59.9071 38.8643 60.2986 39.2559C60.6902 39.6475 60.9105 40.1784 60.9112 40.7322H35.8452ZM60.9112 35.5101C60.9108 35.787 60.8007 36.0525 60.6049 36.2483C60.4091 36.4441 60.1436 36.5542 59.8667 36.5546H47.3337C47.0568 36.5542 46.7914 36.4441 46.5956 36.2483C46.3998 36.0525 46.2896 35.787 46.2893 35.5101V24.0216H60.9112V35.5101ZM60.9112 21.9327H46.2893V20.8883C46.2896 20.6114 46.3998 20.346 46.5956 20.1502C46.7914 19.9544 47.0568 19.8442 47.3337 19.8439H59.8667C60.1436 19.8442 60.4091 19.9544 60.6049 20.1502C60.8007 20.346 60.9108 20.6114 60.9112 20.8883V21.9327Z" fill="black"/>
<path d="M58.8226 12.533H50.4673V14.6218H58.8226V12.533Z" fill="black"/>
<path d="M60.911 8.35533H52.5557V10.4442H60.911V8.35533Z" fill="black"/>
<path d="M62.9999 4.17766H56.7334V6.26649H62.9999V4.17766Z" fill="black"/>
<path d="M49.4228 51.1764C48.8031 51.1764 48.1973 51.3601 47.6821 51.7044C47.1668 52.0487 46.7652 52.5381 46.5281 53.1106C46.2909 53.6831 46.2289 54.3131 46.3498 54.9209C46.4707 55.5287 46.7691 56.087 47.2073 56.5252C47.6455 56.9634 48.2037 57.2618 48.8115 57.3827C49.4193 57.5036 50.0493 57.4415 50.6218 57.2044C51.1944 56.9672 51.6837 56.5656 52.028 56.0504C52.3723 55.5351 52.556 54.9293 52.556 54.3096C52.5551 53.4789 52.2247 52.6825 51.6373 52.0951C51.0499 51.5077 50.2535 51.1773 49.4228 51.1764ZM49.4228 55.354C49.2162 55.354 49.0143 55.2928 48.8426 55.178C48.6708 55.0633 48.5369 54.9001 48.4579 54.7093C48.3788 54.5185 48.3582 54.3085 48.3985 54.1059C48.4388 53.9033 48.5382 53.7172 48.6843 53.5711C48.8303 53.425 49.0164 53.3256 49.219 53.2853C49.4216 53.245 49.6316 53.2657 49.8225 53.3447C50.0133 53.4238 50.1764 53.5576 50.2912 53.7294C50.406 53.9011 50.4672 54.1031 50.4672 54.3096C50.4669 54.5865 50.3568 54.852 50.161 55.0478C49.9652 55.2436 49.6997 55.3537 49.4228 55.354Z" fill="black"/>
<path d="M43.1562 4.17766H41.0674V6.26649H43.1562V4.17766Z" fill="black"/>
<path d="M58.8226 32.3769C58.821 31.1736 58.4046 30.0076 57.6436 29.0755C56.8826 28.1434 55.8236 27.5022 54.6449 27.2599V26.1104H52.5561V27.2599C51.3774 27.5022 50.3183 28.1434 49.5574 29.0755C48.7964 30.0076 48.38 31.1736 48.3784 32.3769V34.4657H58.8226V32.3769ZM50.4672 32.3769C50.4672 31.5459 50.7974 30.7489 51.385 30.1614C51.9726 29.5738 52.7695 29.2436 53.6005 29.2436C54.4315 29.2436 55.2284 29.5738 55.816 30.1614C56.4036 30.7489 56.7337 31.5459 56.7337 32.3769H50.4672Z" fill="black"/>
</svg>
